<?xml version="1.0" encoding="utf-8"?>
<!-- Generator: Adobe Illustrator 17.0.0, SVG Export Plug-In . SVG Version: 6.00 Build 0)  -->
<!DOCTYPE svg PUBLIC "-//W3C//DTD SVG 1.1//EN" "http://www.w3.org/Graphics/SVG/1.1/DTD/svg11.dtd">
<svg version="1.1" id="Layer_1" xmlns="http://www.w3.org/2000/svg" xmlns:xlink="http://www.w3.org/1999/xlink" x="0px" y="0px"
	 width="20px" height="20px" viewBox="0 0 20 20" enable-background="new 0 0 20 20" xml:space="preserve">
<title>amelia-logo-symbol@svg</title>
<desc>Created with Sketch.</desc>
<g>
	<g>
		<g>
			<g>
				<path fill="#009AEB" d="M14.632,7.77v0.151h0.223v0.621h0.168V7.921h0.223V7.77H14.632z"/>
				<path fill="#009AEB" d="M15.949,7.77l-0.181,0.505h-0.003L15.59,7.77h-0.26v0.772h0.171V7.95h0.002l0.195,0.591h0.131
					l0.203-0.591v0.591h0.171V7.77H15.949z"/>
			</g>
			<g>
				<path fill="#009AEB" d="M5.774,8.569H4.395V7.626h3.824v0.942H6.84v3.892H5.774V8.569z"/>
				<path fill="#009AEB" d="M8.56,8.098c0-0.164,0.058-0.304,0.174-0.42s0.256-0.174,0.42-0.174s0.304,0.058,0.42,0.174
					s0.174,0.256,0.174,0.42c0,0.164-0.058,0.304-0.174,0.42s-0.256,0.174-0.42,0.174S8.85,8.634,8.734,8.517S8.56,8.261,8.56,8.098
					z M8.642,9.142h1.024v3.319H8.642V9.142z"/>
				<path fill="#009AEB" d="M10.267,9.152h0.983v0.451h0.014c0.032-0.064,0.077-0.127,0.137-0.191
					c0.059-0.064,0.13-0.121,0.212-0.171c0.082-0.05,0.175-0.091,0.28-0.123c0.105-0.032,0.218-0.048,0.341-0.048
					c0.232,0,0.438,0.048,0.618,0.143c0.18,0.096,0.315,0.246,0.406,0.451c0.118-0.214,0.262-0.366,0.43-0.457
					c0.168-0.091,0.376-0.137,0.621-0.137c0.223,0,0.411,0.038,0.563,0.113c0.152,0.075,0.273,0.178,0.362,0.307
					c0.089,0.13,0.152,0.282,0.191,0.457c0.039,0.175,0.058,0.363,0.058,0.563v1.96H14.46v-1.932c0-0.155-0.033-0.288-0.099-0.399
					c-0.066-0.111-0.183-0.167-0.352-0.167c-0.118,0-0.217,0.019-0.297,0.058c-0.08,0.039-0.143,0.092-0.191,0.16
					c-0.048,0.068-0.082,0.148-0.103,0.239c-0.02,0.091-0.031,0.187-0.031,0.287v1.755h-1.024v-1.755
					c0-0.059-0.002-0.132-0.007-0.219c-0.005-0.086-0.02-0.168-0.048-0.246c-0.027-0.077-0.072-0.143-0.133-0.198
					c-0.061-0.055-0.151-0.082-0.27-0.082c-0.132,0-0.239,0.024-0.321,0.072c-0.082,0.048-0.145,0.112-0.188,0.191
					c-0.043,0.08-0.072,0.17-0.085,0.27c-0.014,0.1-0.02,0.205-0.02,0.314v1.652h-1.024V9.152z"/>
			</g>
		</g>
		<g>
			<path fill="#009AEB" d="M2.477,10.989L0,9.999c0.005,4.691,3.241,8.623,7.603,9.691C1.801,18.159,2.477,10.989,2.477,10.989z"/>
			<path fill="#6FC8F3" d="M2.477,10.989c0,0-0.675,7.17,5.127,8.702c0.042,0.012,0.082,0.025,0.126,0.032
				c0.562,0.131,1.141,0.213,1.734,0.245c0.064,0.003,0.131,0.005,0.195,0.007c0.106,0.002,0.213,0.005,0.322,0.005l-0.992-2.479
				C5.602,17.055,2.924,14.376,2.477,10.989z"/>
			<path fill="#009AEB" d="M10.988,17.503l-0.99,2.477c4.691-0.005,8.623-3.241,9.691-7.603
				C18.158,18.179,10.988,17.503,10.988,17.503z"/>
			<path fill="#6FC8F3" d="M10.988,17.503c0,0,7.17,0.675,8.702-5.127c0.012-0.042,0.025-0.082,0.032-0.126
				c0.131-0.562,0.213-1.141,0.245-1.734c0.002-0.064,0.005-0.131,0.007-0.195c0.003-0.106,0.005-0.213,0.005-0.322L17.5,10.991
				C17.054,14.378,14.375,17.055,10.988,17.503z"/>
			<path fill="#009AEB" d="M17.502,8.991l2.477,0.99c-0.005-4.691-3.241-8.623-7.603-9.691C18.178,1.821,17.502,8.991,17.502,8.991z
				"/>
			<path fill="#6FC8F3" d="M17.502,8.991c0,0,0.675-7.17-5.127-8.702c-0.042-0.012-0.082-0.025-0.126-0.032
				c-0.562-0.131-1.141-0.213-1.734-0.245c-0.064-0.002-0.131-0.005-0.195-0.007C10.213,0.002,10.107,0,9.998,0l0.992,2.479
				C14.377,2.925,17.054,5.604,17.502,8.991z"/>
			<path fill="#009AEB" d="M0.289,7.603c1.532-5.802,8.702-5.127,8.702-5.127L9.981,0C5.29,0.005,1.358,3.241,0.289,7.603z"/>
			<path fill="#6FC8F3" d="M0.289,7.603C0.277,7.645,0.265,7.685,0.257,7.729C0.126,8.291,0.045,8.87,0.012,9.464
				C0.01,9.528,0.007,9.595,0.005,9.659C0.002,9.766,0,9.872,0,9.981l2.479-0.992c0.445-3.387,3.125-6.064,6.512-6.512
				C8.991,2.477,1.821,1.801,0.289,7.603z"/>
		</g>
	</g>
</g>
</svg>
